<svg width="1440" height="810" viewBox="0 0 1440 810" fill="none" xmlns="http://www.w3.org/2000/svg">
<path d="M1440 810H0V0H1440V810Z" fill="#002233"/>
<path d="M0 736L40 738.8C80 741.7 160 747.3 240 748C320 748.7 400 744.3 480 736.5C560 728.7 640 717.3 720 715.5C800 713.7 880 721.3 960 724.2C1040 727 1120 725 1200 725C1280 725 1360 727 1400 728L1440 729V810H1400C1360 810 1280 810 1200 810C1120 810 1040 810 960 810C880 810 800 810 720 810C640 810 560 810 480 810C400 810 320 810 240 810C160 810 80 810 40 810H0V736Z" fill="#3F72AF"/>
</svg>
