<svg width="1440" height="708" viewBox="0 0 1440 708" fill="none" xmlns="http://www.w3.org/2000/svg">
<g clip-path="url(#clip0_349_103)">
<path d="M1440 0H0V708H1440V0Z" fill="#DBE2EF"/>
<path d="M0 459L21.8 460.3C43.7 461.7 87.3 464.3 131 469.8C174.7 475.3 218.3 483.7 262 484.3C305.7 485 349.3 478 393 468.2C436.7 458.3 480.3 445.7 524 444.3C567.7 443 611.3 453 654.8 463C698.3 473 741.7 483 785.2 488.5C828.7 494 872.3 495 916 493.3C959.7 491.7 1003.3 487.3 1047 480.2C1090.7 473 1134.3 463 1178 463.3C1221.7 463.7 1265.3 474.3 1309 469.2C1352.7 464 1396.3 443 1418.2 432.5L1440 422V709H1418.2C1396.3 709 1352.7 709 1309 709C1265.3 709 1221.7 709 1178 709C1134.3 709 1090.7 709 1047 709C1003.3 709 959.7 709 916 709C872.3 709 828.7 709 785.2 709C741.7 709 698.3 709 654.8 709C611.3 709 567.7 709 524 709C480.3 709 436.7 709 393 709C349.3 709 305.7 709 262 709C218.3 709 174.7 709 131 709C87.3 709 43.7 709 21.8 709H0V459Z" fill="#3F72AF"/>
<path d="M0 535L21.8 524.7C43.7 514.3 87.3 493.7 131 485.7C174.7 477.7 218.3 482.3 262 488.7C305.7 495 349.3 503 393 502.2C436.7 501.3 480.3 491.7 524 492.2C567.7 492.7 611.3 503.3 654.8 511C698.3 518.7 741.7 523.3 785.2 527.3C828.7 531.3 872.3 534.7 916 527C959.7 519.3 1003.3 500.7 1047 499.7C1090.7 498.7 1134.3 515.3 1178 515.2C1221.7 515 1265.3 498 1309 497C1352.7 496 1396.3 511 1418.2 518.5L1440 526V709H1418.2C1396.3 709 1352.7 709 1309 709C1265.3 709 1221.7 709 1178 709C1134.3 709 1090.7 709 1047 709C1003.3 709 959.7 709 916 709C872.3 709 828.7 709 785.2 709C741.7 709 698.3 709 654.8 709C611.3 709 567.7 709 524 709C480.3 709 436.7 709 393 709C349.3 709 305.7 709 262 709C218.3 709 174.7 709 131 709C87.3 709 43.7 709 21.8 709H0V535Z" fill="#336096"/>
<path d="M0 560L21.8 555.7C43.7 551.3 87.3 542.7 131 540.7C174.7 538.7 218.3 543.3 262 551C305.7 558.7 349.3 569.3 393 571C436.7 572.7 480.3 565.3 524 559.8C567.7 554.3 611.3 550.7 654.8 550.7C698.3 550.7 741.7 554.3 785.2 556.7C828.7 559 872.3 560 916 561.8C959.7 563.7 1003.3 566.3 1047 564.8C1090.7 563.3 1134.3 557.7 1178 557.8C1221.7 558 1265.3 564 1309 567.3C1352.7 570.7 1396.3 571.3 1418.2 571.7L1440 572V709H1418.2C1396.3 709 1352.7 709 1309 709C1265.3 709 1221.7 709 1178 709C1134.3 709 1090.7 709 1047 709C1003.3 709 959.7 709 916 709C872.3 709 828.7 709 785.2 709C741.7 709 698.3 709 654.8 709C611.3 709 567.7 709 524 709C480.3 709 436.7 709 393 709C349.3 709 305.7 709 262 709C218.3 709 174.7 709 131 709C87.3 709 43.7 709 21.8 709H0V560Z" fill="#284E7D"/>
<path d="M0 606L21.8 606.5C43.7 607 87.3 608 131 603C174.7 598 218.3 587 262 583C305.7 579 349.3 582 393 586.5C436.7 591 480.3 597 524 603C567.7 609 611.3 615 654.8 616.7C698.3 618.3 741.7 615.7 785.2 617.5C828.7 619.3 872.3 625.7 916 619.5C959.7 613.3 1003.3 594.7 1047 592.7C1090.7 590.7 1134.3 605.3 1178 605.5C1221.7 605.7 1265.3 591.3 1309 588.3C1352.7 585.3 1396.3 593.7 1418.2 597.8L1440 602V709H1418.2C1396.3 709 1352.7 709 1309 709C1265.3 709 1221.7 709 1178 709C1134.3 709 1090.7 709 1047 709C1003.3 709 959.7 709 916 709C872.3 709 828.7 709 785.2 709C741.7 709 698.3 709 654.8 709C611.3 709 567.7 709 524 709C480.3 709 436.7 709 393 709C349.3 709 305.7 709 262 709C218.3 709 174.7 709 131 709C87.3 709 43.7 709 21.8 709H0V606Z" fill="#1C3D65"/>
<path d="M0 659L21.8 658.5C43.7 658 87.3 657 131 659.2C174.7 661.3 218.3 666.7 262 666.7C305.7 666.7 349.3 661.3 393 659.8C436.7 658.3 480.3 660.7 524 659.2C567.7 657.7 611.3 652.3 654.8 652.5C698.3 652.7 741.7 658.3 785.2 660C828.7 661.7 872.3 659.3 916 656C959.7 652.7 1003.3 648.3 1047 650.7C1090.7 653 1134.3 662 1178 659C1221.7 656 1265.3 641 1309 642.2C1352.7 643.3 1396.3 660.7 1418.2 669.3L1440 678V709H1418.2C1396.3 709 1352.7 709 1309 709C1265.3 709 1221.7 709 1178 709C1134.3 709 1090.7 709 1047 709C1003.3 709 959.7 709 916 709C872.3 709 828.7 709 785.2 709C741.7 709 698.3 709 654.8 709C611.3 709 567.7 709 524 709C480.3 709 436.7 709 393 709C349.3 709 305.7 709 262 709C218.3 709 174.7 709 131 709C87.3 709 43.7 709 21.8 709H0V659Z" fill="#112D4E"/>
</g>
<defs>
<clipPath id="clip0_349_103">
<rect width="1440" height="708" fill="white"/>
</clipPath>
</defs>
</svg>
