<svg width="1440" height="810" viewBox="0 0 1440 810" fill="none" xmlns="http://www.w3.org/2000/svg">
<path d="M1440 0H0V810H1440V0Z" fill="#DBE2EF"/>
<path d="M0 646.201L34.3 637.401C68.7 628.501 137.3 610.901 205.8 597.201C274.3 583.501 342.7 573.901 411.2 574.001C479.7 574.201 548.3 584.201 617 599.701C685.7 615.201 754.3 636.201 823 646.401C891.7 656.501 960.3 655.901 1028.8 646.401C1097.3 636.901 1165.7 618.501 1234.2 620.201C1302.7 621.901 1371.3 643.501 1405.7 654.401L1440 665.201V810.201H1405.7C1371.3 810.201 1302.7 810.201 1234.2 810.201C1165.7 810.201 1097.3 810.201 1028.8 810.201C960.3 810.201 891.7 810.201 823 810.201C754.3 810.201 685.7 810.201 617 810.201C548.3 810.201 479.7 810.201 411.2 810.201C342.7 810.201 274.3 810.201 205.8 810.201C137.3 810.201 68.7 810.201 34.3 810.201H0V646.201Z" fill="#3F72AF"/>
</svg>
