<svg width="1440" height="810" viewBox="0 0 1440 810" fill="none" xmlns="http://www.w3.org/2000/svg">
<path d="M1440 0H0V810H1440V0Z" fill="#002233"/>
<path d="M1440 283.5C1399 283.8 1357.9 284.2 1331.5 261.9C1305.1 239.7 1293.4 194.8 1275.2 164.8C1257.1 134.7 1232.7 119.5 1211.8 94.5C1191 69.5 1173.7 34.8 1156.5 0H1440V283.5Z" fill="#3F72AF"/>
<path d="M0 526.5C37.6 528.9 75.2 531.4 108.5 548.1C141.8 564.8 170.8 595.7 181 629C191.3 662.3 182.8 697.9 196.8 728.5C210.7 759.1 247.1 784.5 283.5 810H0V526.5Z" fill="#3F72AF"/>
</svg>
