<svg width="600" height="513" viewBox="0 0 600 513" fill="none" xmlns="http://www.w3.org/2000/svg">
<g filter="url(#filter0_d_622_5)">
<path d="M503.168 409.892C464.974 448.464 424.511 477.96 379.132 493.465C333.375 508.591 283.08 509.725 242.239 491.574C201.02 473.8 169.633 436.741 123.876 397.791C77.7409 358.462 16.8576 317.243 5.89101 268.083C-5.07555 218.544 33.1184 161.064 82.657 132.324C131.817 103.584 192.323 103.584 249.046 78.626C306.148 54.0458 359.468 4.88535 414.679 0.34746C469.89 -4.19043 526.614 36.2724 560.27 89.5926C593.548 142.913 603.38 209.468 590.522 266.57C577.287 323.672 541.362 371.32 503.168 409.892Z" fill="#FF0066"/>
</g>
<defs>
<filter id="filter0_d_622_5" x="0" y="3.05176e-05" width="599.97" height="513" filterUnits="userSpaceOnUse" color-interpolation-filters="sRGB">
<feFlood flood-opacity="0" result="BackgroundImageFix"/>
<feColorMatrix in="SourceAlpha" type="matrix" values="0 0 0 0 0 0 0 0 0 0 0 0 0 0 0 0 0 0 127 0" result="hardAlpha"/>
<feOffset dy="4"/>
<feGaussianBlur stdDeviation="2"/>
<feComposite in2="hardAlpha" operator="out"/>
<feColorMatrix type="matrix" values="0 0 0 0 0 0 0 0 0 0 0 0 0 0 0 0 0 0 0.25 0"/>
<feBlend mode="normal" in2="BackgroundImageFix" result="effect1_dropShadow_622_5"/>
<feBlend mode="normal" in="SourceGraphic" in2="effect1_dropShadow_622_5" result="shape"/>
</filter>
</defs>
</svg>
