<svg width="24" height="24" viewBox="0 0 24 24" fill="none" xmlns="http://www.w3.org/2000/svg">
<path fill-rule="evenodd" clip-rule="evenodd" d="M6.16673 3.43358C6.09235 3.3592 6.00404 3.3002 5.90686 3.25995C5.80968 3.21969 5.70552 3.19897 5.60033 3.19897C5.49514 3.19897 5.39098 3.21969 5.29379 3.25995C5.19661 3.3002 5.10831 3.3592 5.03393 3.43358C4.95955 3.50797 4.90054 3.59627 4.86029 3.69345C4.82004 3.79063 4.79932 3.89479 4.79932 3.99999C4.79932 4.10518 4.82004 4.20934 4.86029 4.30652C4.90054 4.4037 4.95955 4.492 5.03393 4.56639L11.4339 10.9664C11.5082 11.0409 11.5965 11.1 11.6937 11.1403C11.7909 11.1807 11.8951 11.2014 12.0003 11.2014C12.1056 11.2014 12.2097 11.1807 12.3069 11.1403C12.4041 11.1 12.4924 11.0409 12.5667 10.9664L18.9667 4.56639C19.1169 4.41617 19.2013 4.21243 19.2013 3.99999C19.2013 3.78754 19.1169 3.5838 18.9667 3.43358C18.8165 3.28337 18.6128 3.19897 18.4003 3.19897C18.1879 3.19897 17.9841 3.28337 17.8339 3.43358L12.0003 9.26879L6.16673 3.43358ZM6.16673 13.0336C6.01651 12.8834 5.81277 12.799 5.60033 12.799C5.38789 12.799 5.18415 12.8834 5.03393 13.0336C4.88371 13.1838 4.79932 13.3875 4.79932 13.6C4.79932 13.8124 4.88371 14.0162 5.03393 14.1664L11.4339 20.5664C11.5082 20.6409 11.5965 20.7 11.6937 20.7403C11.7909 20.7807 11.8951 20.8014 12.0003 20.8014C12.1056 20.8014 12.2097 20.7807 12.3069 20.7403C12.4041 20.7 12.4924 20.6409 12.5667 20.5664L18.9667 14.1664C19.1169 14.0162 19.2013 13.8124 19.2013 13.6C19.2013 13.3875 19.1169 13.1838 18.9667 13.0336C18.8165 12.8834 18.6128 12.799 18.4003 12.799C18.1879 12.799 17.9841 12.8834 17.8339 13.0336L12.0003 18.8688L6.16673 13.0336Z" fill="#F9F7F7"/>
</svg>
